<svg width="500" height="676" viewBox="0 0 500 676" fill="none" xmlns="http://www.w3.org/2000/svg">
<rect y="609" width="140.351" height="10" rx="5" fill="#368F8B"/>
<rect y="41" width="105.263" height="10" rx="5" fill="#6D213C"/>
<rect y="185" width="105.263" height="10" rx="5" fill="#6D213C"/>
<rect x="70.1754" y="255" width="210.526" height="10" rx="5" fill="#C5EBC3"/>
<rect x="201.754" y="98" width="105.263" height="10" rx="5" fill="#6D213C"/>
<rect y="531" width="105.263" height="10" rx="5" fill="#6D213C"/>
<rect x="78.9474" y="649" width="105.263" height="10" rx="5" fill="#6D213C"/>
<rect x="8.77191" y="429" width="105.263" height="10" rx="5" fill="#6D213C"/>
<rect y="325" width="105.263" height="10" rx="5" fill="#6D213C"/>
<rect x="338.597" y="357" width="105.263" height="10" rx="5" fill="#6D213C"/>
<rect x="149.123" y="442" width="140.351" height="10" rx="5" fill="#368F8B"/>
<rect x="184.211" y="222" width="140.351" height="10" rx="5" fill="#368F8B"/>
<rect x="8.77191" y="119" width="140.351" height="10" rx="5" fill="#368F8B"/>
<rect x="43.8596" y="155" width="210.526" height="10" rx="5" fill="#C5EBC3"/>
<rect x="8.77191" y="477" width="210.526" height="10" rx="5" fill="#C5EBC3"/>
<rect x="280.702" y="558" width="140.351" height="10" rx="5" fill="#368F8B"/>
<rect x="8.77191" y="666" width="140.351" height="10" rx="5" fill="#368F8B"/>
<rect y="391" width="140.351" height="10" rx="5" fill="#368F8B"/>
<rect x="289.474" y="661" width="210.526" height="10" rx="5" fill="#C5EBC3"/>
<rect x="280.702" y="277" width="210.526" height="10" rx="5" fill="#C5EBC3"/>
<rect x="8.77191" y="292" width="140.351" height="10" rx="5" fill="#368F8B"/>
<rect x="201.754" y="122" width="210.526" height="10" rx="5" fill="#C5EBC3"/>
<rect width="210.526" height="10" rx="5" fill="#C5EBC3"/>
<rect x="105.263" y="66" width="210.526" height="10" rx="5" fill="#C5EBC3"/>
<rect x="233.333" y="616" width="210.526" height="10" rx="5" fill="#C5EBC3"/>
<rect x="8.77191" y="580" width="210.526" height="10" rx="5" fill="#C5EBC3"/>
<rect x="163.158" y="509" width="210.526" height="10" rx="5" fill="#C5EBC3"/>
<rect x="163.158" y="382" width="210.526" height="10" rx="5" fill="#C5EBC3"/>
</svg>
