<svg width="183" height="676" viewBox="0 0 183 676" fill="none" xmlns="http://www.w3.org/2000/svg">
<rect y="609" width="51.2869" height="10" rx="5" fill="#368F8B"/>
<rect y="41" width="38.4652" height="10" rx="5" fill="#6D213C"/>
<rect y="185" width="38.4652" height="10" rx="5" fill="#6D213C"/>
<rect x="25.6435" y="255" width="76.9304" height="10" rx="5" fill="#C5EBC3"/>
<rect x="73.725" y="98" width="38.4652" height="10" rx="5" fill="#6D213C"/>
<rect y="531" width="38.4652" height="10" rx="5" fill="#6D213C"/>
<rect x="28.8489" y="649" width="38.4652" height="10" rx="5" fill="#6D213C"/>
<rect x="3.20544" y="429" width="38.4652" height="10" rx="5" fill="#6D213C"/>
<rect y="325" width="38.4652" height="10" rx="5" fill="#6D213C"/>
<rect x="123.73" y="357" width="38.4652" height="10" rx="5" fill="#6D213C"/>
<rect x="54.4924" y="442" width="51.2869" height="10" rx="5" fill="#368F8B"/>
<rect x="67.3141" y="222" width="51.2869" height="10" rx="5" fill="#368F8B"/>
<rect x="3.20544" y="119" width="51.2869" height="10" rx="5" fill="#368F8B"/>
<rect x="16.0272" y="155" width="76.9304" height="10" rx="5" fill="#C5EBC3"/>
<rect x="3.20544" y="477" width="76.9304" height="10" rx="5" fill="#C5EBC3"/>
<rect x="102.574" y="558" width="51.2869" height="10" rx="5" fill="#368F8B"/>
<rect x="3.20544" y="666" width="51.2869" height="10" rx="5" fill="#368F8B"/>
<rect y="391" width="51.2869" height="10" rx="5" fill="#368F8B"/>
<rect x="105.779" y="661" width="76.9304" height="10" rx="5" fill="#C5EBC3"/>
<rect x="102.574" y="277" width="76.9304" height="10" rx="5" fill="#C5EBC3"/>
<rect x="3.20544" y="292" width="51.2869" height="10" rx="5" fill="#368F8B"/>
<rect x="73.725" y="122" width="76.9304" height="10" rx="5" fill="#C5EBC3"/>
<rect width="76.9304" height="10" rx="5" fill="#C5EBC3"/>
<rect x="38.4651" y="66" width="76.9304" height="10" rx="5" fill="#C5EBC3"/>
<rect x="85.2645" y="616" width="76.9304" height="10" rx="5" fill="#C5EBC3"/>
<rect x="3.20544" y="580" width="76.9304" height="10" rx="5" fill="#C5EBC3"/>
<rect x="59.621" y="509" width="76.9304" height="10" rx="5" fill="#C5EBC3"/>
<rect x="59.621" y="382" width="76.9304" height="10" rx="5" fill="#C5EBC3"/>
</svg>
