<svg width="285" height="676" viewBox="0 0 285 676" fill="none" xmlns="http://www.w3.org/2000/svg">
<rect y="609" width="80" height="10" rx="5" fill="#368F8B"/>
<rect y="41" width="60" height="10" rx="5" fill="#6D213C"/>
<rect y="185" width="60" height="10" rx="5" fill="#6D213C"/>
<rect x="40" y="255" width="120" height="10" rx="5" fill="#C5EBC3"/>
<rect x="115" y="98" width="60" height="10" rx="5" fill="#6D213C"/>
<rect y="531" width="60" height="10" rx="5" fill="#6D213C"/>
<rect x="45" y="649" width="60" height="10" rx="5" fill="#6D213C"/>
<rect x="5" y="429" width="60" height="10" rx="5" fill="#6D213C"/>
<rect y="325" width="60" height="10" rx="5" fill="#6D213C"/>
<rect x="193" y="357" width="60" height="10" rx="5" fill="#6D213C"/>
<rect x="85" y="442" width="80" height="10" rx="5" fill="#368F8B"/>
<rect x="105" y="222" width="80" height="10" rx="5" fill="#368F8B"/>
<rect x="5" y="119" width="80" height="10" rx="5" fill="#368F8B"/>
<rect x="25" y="155" width="120" height="10" rx="5" fill="#C5EBC3"/>
<rect x="5" y="477" width="120" height="10" rx="5" fill="#C5EBC3"/>
<rect x="160" y="558" width="80" height="10" rx="5" fill="#368F8B"/>
<rect x="5" y="666" width="80" height="10" rx="5" fill="#368F8B"/>
<rect y="391" width="80" height="10" rx="5" fill="#368F8B"/>
<rect x="165" y="661" width="120" height="10" rx="5" fill="#C5EBC3"/>
<rect x="160" y="277" width="120" height="10" rx="5" fill="#C5EBC3"/>
<rect x="5" y="292" width="80" height="10" rx="5" fill="#368F8B"/>
<rect x="115" y="122" width="120" height="10" rx="5" fill="#C5EBC3"/>
<rect width="120" height="10" rx="5" fill="#C5EBC3"/>
<rect x="60" y="66" width="120" height="10" rx="5" fill="#C5EBC3"/>
<rect x="133" y="616" width="120" height="10" rx="5" fill="#C5EBC3"/>
<rect x="5" y="580" width="120" height="10" rx="5" fill="#C5EBC3"/>
<rect x="93" y="509" width="120" height="10" rx="5" fill="#C5EBC3"/>
<rect x="93" y="382" width="120" height="10" rx="5" fill="#C5EBC3"/>
</svg>
